<svg width="283" height="62" xmlns="http://www.w3.org/2000/svg">
 <!-- Created with Method Draw - http://github.com/duopixel/Method-Draw/ -->
 <g>
  <title>background</title>
  <rect fill="none" id="canvas_background" height="64" width="285" y="-1" x="-1"/>
  <g display="none" overflow="visible" y="0" x="0" height="100%" width="100%" id="canvasGrid">
   <rect fill="url(#gridpattern)" stroke-width="0" y="0" x="0" height="100%" width="100%"/>
  </g>
 </g>
 <g>
  <title>Layer 1</title>
  <path stroke="#000000" id="svg_4" d="m163.673442,53.711296c-3.206876,-12.2281 -8.08042,-22.477484 -5.876113,-32.673681c-0.679666,-6.650221 6.319754,-8.506117 21.873648,10.581217l13.998477,-12.148781c15.031802,-8.089325 15.162583,19.530178 1.333991,35.852012" stroke-width="11.5" fill="none"/>
  <path stroke="#000000" id="svg_5" d="m23.951497,11.740291c0.52878,-0.53638 27.23938,6.17562 27.2388,6.14196c9.71483,-0.53777 0.00058,31.67965 0,31.646c0.00058,0.03365 -35.42788,5.93375 -35.42845,5.9001c0.00057,0.03365 13.39072,-26.04887 11.10501,-38.04882l-8.9893,-0.70407z" stroke-width="11.5" fill="none"/>
  <path stroke="#000000" id="svg_6" d="m68.33518,48.336071l1.37882,-25.529c11.619,-9.751974 24.38084,-7.284889 28.57131,-1.396468l-2.95566,27.859463c-1.95057,2.295403 -15.32966,8.500906 -26.99447,-0.933995z" stroke-width="11.5" fill="none"/>
  <path stroke="#000000" id="svg_7" d="m114.049276,47.764646l1.299899,-25.529c10.953954,-9.75198 22.985335,-7.28489 26.935951,-1.39647l-2.786485,27.85946c-1.838924,2.29541 -14.452224,8.50091 -25.449366,-0.93399z" stroke-width="11.5" fill="none"/>
  <path stroke="#000000" transform="rotate(-5.402120113372803 246.07191467285153,35.54973983764655) " id="svg_8" d="m230.211019,26.349866c8.200096,-18.222259 -11.842152,10.261699 -10.132169,17.70903c-0.52725,4.857333 7.324171,11.954414 23.938448,-3.749054c2.804087,3.864028 11.340409,13.467799 17.658303,12.149882c24.590726,-0.740974 -2.980776,-49.823239 6.025659,-28.642174" stroke-width="11.5" fill="none"/>
  <path stroke="#04888c" id="svg_14" d="m166.026392,47.828918c-3.206876,-12.2281 -8.08042,-22.477484 -5.876113,-32.673681c-0.679666,-6.650221 6.319754,-8.506117 21.873648,10.581217l13.998477,-12.148781c15.031802,-8.089325 15.162583,19.530178 1.333991,35.852012" stroke-width="11.5" fill="none"/>
  <path stroke="#04888c" id="svg_15" d="m26.304447,5.857913c0.52878,-0.53638 27.23938,6.17562 27.2388,6.14196c9.71483,-0.53777 0.00058,31.67965 0,31.646c0.00058,0.03365 -35.42788,5.93375 -35.42845,5.9001c0.00057,0.03365 13.39072,-26.04887 11.10501,-38.04882l-8.9893,-0.70407z" stroke-width="11.5" fill="none"/>
  <path stroke="#04888c" id="svg_16" d="m70.68813,42.453693l1.37882,-25.529c11.619,-9.751974 24.38084,-7.284889 28.57131,-1.396468l-2.95566,27.859463c-1.95057,2.295403 -15.32966,8.500906 -26.99447,-0.933995z" stroke-width="11.5" fill="none"/>
  <path stroke="#04888c" id="svg_17" d="m116.402226,41.882268l1.299899,-25.529c10.953954,-9.75198 22.985335,-7.28489 26.935952,-1.39647l-2.786485,27.85946c-1.838924,2.29541 -14.452224,8.50091 -25.449366,-0.93399z" stroke-width="11.5" fill="none"/>
  <path stroke="#237700" transform="rotate(-5.402120113372803 248.42486572265616,29.667358398437777) " id="svg_18" d="m232.563969,20.467488c8.200096,-18.222258 -11.842152,10.2617 -10.132168,17.70903c-0.527251,4.857332 7.32417,11.954413 23.938447,-3.749055c2.804088,3.864029 11.340409,13.467799 17.658304,12.149883c24.590726,-0.740974 -2.980776,-49.82324 6.025658,-28.642174" stroke-width="11.5" fill="none"/>
 </g>
</svg>