<svg width="330" height="100" xmlns="http://www.w3.org/2000/svg">
 <!-- Created with Method Draw - http://github.com/duopixel/Method-Draw/ -->

 <g>
  <title>background</title>
  <rect x="-1" y="-1" width="332" height="102" id="canvas_background" fill="none"/>
  <g id="canvasGrid" display="none">
   <rect id="svg_1" width="100%" height="100%" x="0" y="0" stroke-width="0" fill="url(#gridpattern)"/>
  </g>
 </g>
 <g>
  <title>Layer 1</title>
  <path stroke="#007fff" fill="#ffffff" stroke-width="0" stroke-opacity="null" d="m13.815783,22.551505l-9.166674,66.852023l53.854171,-17.61371l1.145826,-28.021797l-52.708323,-40.031148l36.666661,41.632386l1.145837,16.813078c0,0.400316 -28.645835,13.210286 -28.645835,13.210286c0,0 -2.291663,-52.841118 -2.291663,-52.841118z" id="svg_33"/>
  <path stroke="#007fff" transform="rotate(-6.984992504119873 90.44709777832055,53.64905929565427) " fill="#ffffff" stroke-width="0" stroke-opacity="null" d="m63.013138,70.654464l4.535076,-29.601901l50.332843,-5.038589l-1.7558,34.955253l-48.577043,0.314916c0.147035,0.000144 3.073363,-6.2981 3.073363,-6.2981c0,0 37.457004,-0.629832 37.309969,-0.629975c0.147035,0.000144 0.732308,-20.784063 0.585256,-20.784206c0.147052,0.000144 -34.383624,2.519443 -34.383624,2.519443c0,0 -2.341055,17.005262 -2.341055,17.005262" id="svg_34"/>
  <path stroke="#007fff" fill="#ffffff" stroke-width="0" stroke-opacity="null" d="m165.210867,67.667945l-3.654227,-29.625362l-40.556636,-5.042582l1.414766,34.982957l39.14187,0.315165c-0.118477,0.000144 -2.476431,-6.303091 -2.476431,-6.303091c0,0 -30.18168,-0.630331 -30.063188,-0.630474c-0.118492,0.000144 -0.590086,-20.800535 -0.471594,-20.800679c-0.118492,0.000144 27.705249,2.521439 27.705249,2.521439c0,0 1.88636,17.018739 1.88636,17.018739" id="svg_35"/>
  <path stroke="#007fff" fill="#ffffff" stroke-width="0" stroke-opacity="null" d="m169.788685,73.033672l-2.788675,-41.490085c0.133415,0.000172 27.748126,19.613589 28.810227,19.236404c1.062101,-0.377174 30.269971,-25.27112 30.13654,-25.271292c0.13343,0.000172 -9.425507,56.200137 -9.956565,57.331682c-0.531043,1.131545 2.124217,-38.849649 1.593159,-38.849649c-0.531058,0 -22.835235,17.350327 -22.968665,17.350155c0.13343,0.000172 -20.577603,-19.990419 -20.577603,-19.990419c0,0 -4.248418,6.789259 -4.248418,31.683205z" id="svg_36"/>
  <path stroke="#007fff" fill="#ffffff" stroke-width="0" stroke-opacity="null" d="m251.999993,29.366677c0,0 9.955741,46.65813 9.955741,46.65813c0,0 10.311301,-25.210437 10.666871,-25.210437c0.35556,0 18.133671,28.220639 18.133671,28.220639c0,0 14.578051,-50.420884 14.488721,-50.42105c0.08933,0.000167 -16.266531,31.607294 -16.266531,31.607294c0,0 -13.155801,-26.715548 -13.155801,-26.715548c0,0 -12.089121,26.339273 -12.089121,26.339273c0,0 -11.733551,-30.478302 -11.733551,-30.478302z" id="svg_37"/>
  <ellipse stroke="#ffffff" fill="none" stroke-width="8.5" cx="277" cy="50" id="svg_38" rx="45.000002" ry="34.999996"/>
  <rect stroke="#ffffff" transform="rotate(89 277.79608154296875,19.500000000000004) " id="svg_3" height="9" width="10.061198" y="15" x="272.765474" stroke-width="0" fill="#ffffff"/>
  <rect stroke="#ffffff" transform="rotate(89 277.9430236816406,78.5) " id="svg_4" height="9" width="7.0093" y="74" x="274.438399" stroke-width="0" fill="#ffffff"/>
  <rect stroke="#ffffff" id="svg_5" height="9" width="10.061198" y="45" x="234" stroke-width="0" fill="#ffffff"/>
  <rect stroke="#ffffff" id="svg_6" height="9" width="10.061198" y="45" x="310" stroke-width="0" fill="#ffffff"/>
 </g>
</svg>